<svg width="1024" height="1024" viewBox="0 0 1024 1024" fill="none" xmlns="http://www.w3.org/2000/svg">
<path d="M284.848 128.555C314.164 128.555 341.254 134.121 366.117 145.254C391.166 156.387 410.556 171.787 424.286 191.455C426.884 195.352 428.461 198.135 429.018 199.805C429.76 201.475 430.131 204.165 430.131 207.876V619.512C430.131 623.037 429.018 625.82 426.791 627.861C424.75 630.088 422.152 631.201 418.998 631.201C415.473 631.201 412.226 629.902 409.257 627.305C399.423 618.77 388.476 611.44 376.415 605.317C364.354 599.38 351.552 594.741 338.007 591.401C324.462 588.247 310.453 586.67 295.98 586.67C272.787 586.67 250.058 590.474 227.792 598.081C205.526 605.874 185.58 617.285 167.953 632.314C165.355 634.541 162.479 636.211 159.325 637.324C156.356 638.438 153.202 638.994 149.862 638.994C142.997 638.994 137.616 637.139 133.72 633.428C129.823 629.902 127.875 624.893 127.875 618.398V225.688C127.875 220.493 127.968 216.689 128.153 214.277C128.524 211.68 129.545 208.989 131.215 206.206C140.678 189.692 153.573 175.684 169.901 164.18C186.229 152.676 204.32 143.862 224.174 137.739C244.213 131.616 264.438 128.555 284.848 128.555ZM611.874 128.555C632.284 128.555 652.416 131.616 672.27 137.739C692.309 143.862 710.492 152.676 726.82 164.18C743.148 175.684 756.044 189.692 765.507 206.206C767.177 208.804 768.104 211.401 768.29 213.999C768.661 216.597 768.847 220.493 768.847 225.688V618.398C768.847 624.893 766.898 629.902 763.002 633.428C759.105 637.139 753.725 638.994 746.859 638.994C743.52 638.994 740.272 638.438 737.118 637.324C734.149 636.211 731.366 634.541 728.769 632.314C711.142 617.285 691.195 605.874 668.93 598.081C646.664 590.474 623.935 586.67 600.741 586.67C586.269 586.67 572.26 588.247 558.715 591.401C545.17 594.741 532.367 599.38 520.307 605.317C508.246 611.44 497.299 618.77 487.465 627.305C484.496 629.902 481.249 631.201 477.724 631.201C474.569 631.201 471.879 630.088 469.652 627.861C467.611 625.82 466.591 623.037 466.591 619.512V207.876C466.591 204.165 466.869 201.475 467.426 199.805C468.168 198.135 469.838 195.352 472.436 191.455C486.166 171.787 505.463 156.387 530.326 145.254C555.375 134.121 582.558 128.555 611.874 128.555Z" fill="white" style="fill:white;fill-opacity:1;"/>
</svg>
