<svg width="1024" height="1024" viewBox="0 0 1024 1024" fill="none" xmlns="http://www.w3.org/2000/svg">
<path d="M671.13 774.974C678.781 805.085 702.752 802.074 702.752 802.074C702.752 802.074 725.704 808.598 736.924 774.974" stroke="white" style="stroke:white;stroke-opacity:1;" stroke-width="20" stroke-linecap="round"/>
<path d="M872.885 683.502C870.952 662.311 866.674 636.612 859.175 618.465C857.325 614.058 813.609 512 703.258 512C674.689 512 650.697 518.761 630.726 528.857C597.078 542.842 571.152 568.722 555.088 603.898C550.48 612.204 548.134 617.911 547.762 618.865C540.428 636.558 536.216 661.902 534.242 682.984C520.78 694.216 512 712.545 512 733.2C512 761.724 528.725 785.787 551.405 792.902C580.138 854.595 638.622 894.524 703.555 894.524C768.53 894.524 827.071 854.513 855.805 792.693C878.138 785.315 894.524 761.443 894.524 733.2C894.499 712.863 886.001 694.77 872.885 683.502ZM841.203 758.707C838.593 758.707 836.099 758.035 833.803 756.899C815.385 815.775 764.095 858.185 703.547 858.185C642.941 858.185 591.577 815.666 573.225 756.708C570.781 757.99 568.121 758.716 565.313 758.716C554.072 758.707 545.037 747.285 545.037 733.2C545.037 719.124 554.072 707.71 565.313 707.71C565.52 707.71 565.718 707.774 565.932 707.783C565.99 699.95 566.626 690.263 567.766 680.285C569.377 680.367 570.979 680.494 572.622 680.494C601.174 680.494 633.377 667.818 661.475 645.627C675.937 658.858 696.106 673.488 714.573 673.488H719.752L718.587 667.936C718.504 667.581 712.351 637.585 710.964 610.85C719.71 622.418 729.72 632.95 740.821 642.246C769.918 666.6 803.863 680.558 833.927 680.558C835.768 680.558 837.544 680.431 839.312 680.331C840.443 690.281 841.071 699.904 841.137 707.719C841.17 707.719 841.186 707.71 841.203 707.71C852.444 707.71 861.471 719.124 861.471 733.2C861.463 747.285 852.452 758.707 841.203 758.707Z" fill="white" style="fill:white;fill-opacity:1;"/>
<path d="M641.843 720.269C652.863 720.269 661.797 710.439 661.797 698.314C661.797 686.189 652.863 676.36 641.843 676.36C630.822 676.36 621.888 686.189 621.888 698.314C621.888 710.439 630.822 720.269 641.843 720.269Z" fill="white" style="fill:white;fill-opacity:1;"/>
<path d="M764.665 720.269C775.685 720.269 784.619 710.439 784.619 698.314C784.619 686.189 775.685 676.36 764.665 676.36C753.644 676.36 744.711 686.189 744.711 698.314C744.711 710.439 753.644 720.269 764.665 720.269Z" fill="white" style="fill:white;fill-opacity:1;"/>
<g filter="url(#filter0_d_2008_42)">
<path d="M311.811 472.691C380.072 472.691 435.297 527.916 435.297 596.031C435.297 664.293 380.072 719.518 311.811 719.518C287.934 719.518 265.814 712.486 247.357 700.475L188.91 758.775C183.051 764.488 175.727 767.271 167.816 767.271C151.117 767.271 138.227 754.674 138.227 737.682C138.227 729.771 141.01 722.154 146.723 716.441L205.609 657.555C194.77 639.684 188.471 618.736 188.471 596.031C188.471 527.916 243.695 472.691 311.811 472.691ZM311.811 512.682C265.961 512.682 228.461 550.182 228.461 596.031C228.461 642.027 265.961 679.381 311.811 679.381C357.807 679.381 395.16 642.027 395.16 596.031C395.16 550.182 357.807 512.682 311.811 512.682Z" fill="white" style="fill:white;fill-opacity:1;"/>
</g>
<defs>
<filter id="filter0_d_2008_42" x="134.227" y="472.691" width="305.07" height="302.58" filterUnits="userSpaceOnUse" color-interpolation-filters="sRGB">
<feFlood flood-opacity="0" result="BackgroundImageFix"/>
<feColorMatrix in="SourceAlpha" type="matrix" values="0 0 0 0 0 0 0 0 0 0 0 0 0 0 0 0 0 0 127 0" result="hardAlpha"/>
<feOffset dy="4"/>
<feGaussianBlur stdDeviation="2"/>
<feComposite in2="hardAlpha" operator="out"/>
<feColorMatrix type="matrix" values="0 0 0 0 0 0 0 0 0 0 0 0 0 0 0 0 0 0 0.25 0"/>
<feBlend mode="normal" in2="BackgroundImageFix" result="effect1_dropShadow_2008_42"/>
<feBlend mode="normal" in="SourceGraphic" in2="effect1_dropShadow_2008_42" result="shape"/>
</filter>
</defs>
</svg>
