<svg width="1024" height="1024" viewBox="0 0 1024 1024" fill="none" xmlns="http://www.w3.org/2000/svg">
<g filter="url(#filter0_d_2008_45)">
<path d="M382.832 893.574C379.668 893.574 377.148 891.289 376.504 887.891C370.469 848.867 365.605 844.238 327.812 839.023C324.414 838.555 321.953 835.977 321.953 832.695C321.953 829.414 324.473 826.719 327.871 826.309C365.723 822.09 371.113 816.582 376.504 777.5C377.031 774.16 379.609 771.816 382.832 771.816C385.996 771.816 388.574 774.16 389.102 777.5C395.02 816.582 400.117 821.621 437.852 826.309C441.191 826.777 443.711 829.414 443.711 832.695C443.711 835.977 441.191 838.613 437.793 839.023C399.941 843.301 394.492 848.809 389.102 887.891C388.633 891.23 386.055 893.574 382.832 893.574Z" fill="white" style="fill:white;fill-opacity:1;"/>
</g>
<g filter="url(#filter1_d_2008_45)">
<mask id="path-2-outside-1_2008_45" maskUnits="userSpaceOnUse" x="697" y="129" width="206" height="253" fill="black">
<rect fill="white" x="697" y="129" width="206" height="253"/>
<path d="M793.883 183.831C792.455 183.831 791.686 182.952 791.466 181.633C788.17 163.835 788.5 162.957 769.384 159.551C767.956 159.221 767.187 158.452 767.187 157.024C767.187 155.706 767.956 154.827 769.384 154.607C788.5 151.201 788.17 150.322 791.466 132.524C791.686 131.206 792.455 130.327 793.883 130.327C795.312 130.327 796.081 131.206 796.3 132.524C799.596 150.322 799.267 151.201 818.383 154.607C819.701 154.827 820.58 155.706 820.58 157.024C820.58 158.452 819.701 159.221 818.383 159.551C799.267 162.957 799.596 163.835 796.3 181.633C796.081 182.952 795.312 183.831 793.883 183.831ZM740.709 259.417C738.732 259.417 737.304 257.988 736.974 255.791C733.458 226.458 732.03 225.688 702.147 220.854C699.84 220.525 698.412 219.316 698.412 217.119C698.412 215.142 699.84 213.823 701.708 213.494C731.811 207.781 733.458 207.891 736.974 178.557C737.304 176.36 738.732 174.932 740.709 174.932C742.797 174.932 744.225 176.36 744.445 178.447C748.29 208.22 749.389 209.209 779.711 213.494C781.579 213.713 783.007 215.142 783.007 217.119C783.007 219.207 781.579 220.525 779.711 220.854C749.389 226.677 748.4 226.677 744.445 256.011C744.225 257.988 742.797 259.417 740.709 259.417ZM815.197 380.925C812.34 380.925 810.253 378.838 809.813 375.872C801.574 315.776 793.334 307.756 734.008 299.956C730.822 299.626 728.734 297.429 728.734 294.463C728.734 291.606 730.822 289.409 734.008 289.08C793.444 282.488 802.013 273.259 809.813 213.054C810.253 210.088 812.34 208.11 815.197 208.11C818.053 208.11 820.141 210.088 820.69 213.054C828.49 273.259 836.95 282.488 896.496 289.08C899.572 289.409 901.659 291.606 901.659 294.463C901.659 297.429 899.572 299.626 896.496 299.956C836.95 306.548 828.49 315.776 820.69 375.872C820.141 378.838 818.053 380.925 815.197 380.925Z"/>
</mask>
<path d="M793.883 183.831C792.455 183.831 791.686 182.952 791.466 181.633C788.17 163.835 788.5 162.957 769.384 159.551C767.956 159.221 767.187 158.452 767.187 157.024C767.187 155.706 767.956 154.827 769.384 154.607C788.5 151.201 788.17 150.322 791.466 132.524C791.686 131.206 792.455 130.327 793.883 130.327C795.312 130.327 796.081 131.206 796.3 132.524C799.596 150.322 799.267 151.201 818.383 154.607C819.701 154.827 820.58 155.706 820.58 157.024C820.58 158.452 819.701 159.221 818.383 159.551C799.267 162.957 799.596 163.835 796.3 181.633C796.081 182.952 795.312 183.831 793.883 183.831ZM740.709 259.417C738.732 259.417 737.304 257.988 736.974 255.791C733.458 226.458 732.03 225.688 702.147 220.854C699.84 220.525 698.412 219.316 698.412 217.119C698.412 215.142 699.84 213.823 701.708 213.494C731.811 207.781 733.458 207.891 736.974 178.557C737.304 176.36 738.732 174.932 740.709 174.932C742.797 174.932 744.225 176.36 744.445 178.447C748.29 208.22 749.389 209.209 779.711 213.494C781.579 213.713 783.007 215.142 783.007 217.119C783.007 219.207 781.579 220.525 779.711 220.854C749.389 226.677 748.4 226.677 744.445 256.011C744.225 257.988 742.797 259.417 740.709 259.417ZM815.197 380.925C812.34 380.925 810.253 378.838 809.813 375.872C801.574 315.776 793.334 307.756 734.008 299.956C730.822 299.626 728.734 297.429 728.734 294.463C728.734 291.606 730.822 289.409 734.008 289.08C793.444 282.488 802.013 273.259 809.813 213.054C810.253 210.088 812.34 208.11 815.197 208.11C818.053 208.11 820.141 210.088 820.69 213.054C828.49 273.259 836.95 282.488 896.496 289.08C899.572 289.409 901.659 291.606 901.659 294.463C901.659 297.429 899.572 299.626 896.496 299.956C836.95 306.548 828.49 315.776 820.69 375.872C820.141 378.838 818.053 380.925 815.197 380.925Z" fill="white" style="fill:white;fill-opacity:1;"/>
<path d="M791.466 181.633L792.453 181.469L792.451 181.46L792.45 181.451L791.466 181.633ZM769.384 159.551L769.159 160.525L769.184 160.531L769.208 160.535L769.384 159.551ZM769.384 154.607L769.536 155.595L769.548 155.594L769.559 155.591L769.384 154.607ZM791.466 132.524L792.45 132.707L792.451 132.698L792.453 132.689L791.466 132.524ZM796.3 132.524L795.314 132.689L795.315 132.698L795.317 132.707L796.3 132.524ZM818.383 154.607L818.207 155.591L818.218 155.593L818.383 154.607ZM818.383 159.551L818.558 160.535L818.592 160.529L818.625 160.521L818.383 159.551ZM796.3 181.633L795.317 181.451L795.315 181.46L795.314 181.469L796.3 181.633ZM736.974 255.791L735.981 255.91L735.983 255.925L735.985 255.939L736.974 255.791ZM702.147 220.854L702.307 219.867L702.298 219.866L702.289 219.865L702.147 220.854ZM701.708 213.494L701.882 214.479L701.894 214.476L701.708 213.494ZM736.974 178.557L735.985 178.409L735.983 178.423L735.981 178.438L736.974 178.557ZM744.445 178.447L743.45 178.552L743.452 178.564L743.453 178.575L744.445 178.447ZM779.711 213.494L779.571 214.484L779.583 214.485L779.594 214.487L779.711 213.494ZM779.711 220.854L779.537 219.87L779.53 219.871L779.522 219.872L779.711 220.854ZM744.445 256.011L743.454 255.877L743.452 255.889L743.451 255.9L744.445 256.011ZM809.813 375.872L808.823 376.007L808.824 376.018L809.813 375.872ZM734.008 299.956L734.138 298.965L734.124 298.963L734.111 298.961L734.008 299.956ZM734.008 289.08L734.111 290.074L734.118 290.073L734.008 289.08ZM809.813 213.054L808.824 212.908L808.823 212.917L808.822 212.926L809.813 213.054ZM820.69 213.054L821.682 212.926L821.678 212.899L821.673 212.872L820.69 213.054ZM896.496 289.08L896.386 290.074L896.389 290.074L896.496 289.08ZM896.496 299.956L896.389 298.962L896.386 298.962L896.496 299.956ZM820.69 375.872L821.673 376.054L821.678 376.027L821.682 376L820.69 375.872ZM793.883 183.831V182.831C793.388 182.831 793.101 182.685 792.916 182.507C792.716 182.313 792.539 181.985 792.453 181.469L791.466 181.633L790.48 181.798C790.614 182.6 790.931 183.37 791.527 183.946C792.139 184.536 792.95 184.831 793.883 184.831V183.831ZM791.466 181.633L792.45 181.451C791.631 177.028 791.024 173.578 790.277 170.886C789.528 168.181 788.606 166.114 787.084 164.507C785.558 162.897 783.521 161.845 780.731 160.98C777.953 160.119 774.328 159.416 769.559 158.566L769.384 159.551L769.208 160.535C773.997 161.388 777.5 162.072 780.139 162.89C782.767 163.705 784.438 164.623 785.632 165.883C786.828 167.146 787.637 168.849 788.35 171.42C789.066 174.005 789.654 177.339 790.483 181.815L791.466 181.633ZM769.384 159.551L769.609 158.576C769.011 158.439 768.678 158.237 768.493 158.03C768.323 157.841 768.187 157.55 768.187 157.024H767.187H766.187C766.187 157.926 766.435 158.733 767.006 159.368C767.562 159.986 768.328 160.333 769.159 160.525L769.384 159.551ZM767.187 157.024H768.187C768.187 156.565 768.316 156.269 768.493 156.072C768.674 155.871 768.992 155.679 769.536 155.595L769.384 154.607L769.232 153.619C768.348 153.755 767.567 154.112 767.006 154.734C766.441 155.362 766.187 156.164 766.187 157.024H767.187ZM769.384 154.607L769.559 155.591C774.328 154.742 777.953 154.039 780.731 153.178C783.521 152.313 785.558 151.261 787.084 149.65C788.606 148.043 789.528 145.977 790.277 143.271C791.024 140.579 791.631 137.129 792.45 132.707L791.466 132.524L790.483 132.342C789.654 136.818 789.066 140.153 788.35 142.737C787.637 145.309 786.828 147.012 785.632 148.275C784.438 149.535 782.767 150.453 780.139 151.267C777.5 152.085 773.997 152.769 769.208 153.622L769.384 154.607ZM791.466 132.524L792.453 132.689C792.539 132.172 792.716 131.844 792.916 131.651C793.101 131.473 793.388 131.327 793.883 131.327V130.327V129.327C792.95 129.327 792.139 129.621 791.527 130.212C790.931 130.787 790.614 131.558 790.48 132.36L791.466 132.524ZM793.883 130.327V131.327C794.379 131.327 794.666 131.473 794.85 131.651C795.051 131.844 795.228 132.172 795.314 132.689L796.3 132.524L797.287 132.36C797.153 131.558 796.836 130.787 796.24 130.212C795.628 129.621 794.816 129.327 793.883 129.327V130.327ZM796.3 132.524L795.317 132.707C796.136 137.129 796.743 140.579 797.489 143.271C798.239 145.977 799.16 148.043 800.683 149.65C802.208 151.261 804.245 152.313 807.035 153.178C809.813 154.039 813.438 154.742 818.207 155.591L818.383 154.607L818.558 153.622C813.769 152.769 810.267 152.085 807.627 151.267C805 150.453 803.329 149.535 802.135 148.275C800.938 147.012 800.129 145.309 799.417 142.737C798.7 140.153 798.112 136.818 797.284 132.342L796.3 132.524ZM818.383 154.607L818.218 155.593C818.702 155.674 819.037 155.863 819.245 156.086C819.444 156.3 819.58 156.6 819.58 157.024H820.58H821.58C821.58 156.13 821.276 155.331 820.707 154.721C820.146 154.12 819.382 153.76 818.547 153.621L818.383 154.607ZM820.58 157.024H819.58C819.58 157.515 819.437 157.811 819.245 158.017C819.034 158.243 818.683 158.445 818.14 158.581L818.383 159.551L818.625 160.521C819.401 160.327 820.149 159.98 820.707 159.382C821.284 158.763 821.58 157.961 821.58 157.024H820.58ZM818.383 159.551L818.207 158.566C813.438 159.416 809.813 160.119 807.035 160.98C804.245 161.845 802.208 162.897 800.683 164.507C799.16 166.114 798.239 168.181 797.489 170.886C796.743 173.578 796.136 177.028 795.317 181.451L796.3 181.633L797.284 181.815C798.112 177.339 798.7 174.005 799.417 171.42C800.129 168.849 800.938 167.146 802.135 165.883C803.329 164.623 805 163.705 807.627 162.89C810.267 162.072 813.769 161.388 818.558 160.535L818.383 159.551ZM796.3 181.633L795.314 181.469C795.228 181.985 795.051 182.313 794.85 182.507C794.666 182.685 794.379 182.831 793.883 182.831V183.831V184.831C794.816 184.831 795.628 184.536 796.24 183.946C796.836 183.37 797.153 182.6 797.287 181.798L796.3 181.633ZM740.709 259.417V258.417C739.335 258.417 738.236 257.465 737.963 255.643L736.974 255.791L735.985 255.939C736.371 258.511 738.129 260.417 740.709 260.417V259.417ZM736.974 255.791L737.967 255.672C737.09 248.351 736.335 242.736 735.22 238.389C734.102 234.027 732.597 230.833 730.15 228.423C727.709 226.019 724.43 224.494 719.967 223.264C715.513 222.036 709.762 221.073 702.307 219.867L702.147 220.854L701.988 221.842C709.474 223.053 715.108 223.999 719.436 225.192C723.755 226.382 726.656 227.789 728.747 229.848C730.832 231.901 732.211 234.702 733.283 238.885C734.359 243.083 735.101 248.565 735.981 255.91L736.974 255.791ZM702.147 220.854L702.289 219.865C701.264 219.718 700.552 219.392 700.106 218.965C699.683 218.56 699.412 217.983 699.412 217.119H698.412H697.412C697.412 218.453 697.855 219.578 698.723 220.41C699.568 221.219 700.724 221.661 702.006 221.844L702.147 220.854ZM698.412 217.119H699.412C699.412 215.735 700.377 214.744 701.882 214.478L701.708 213.494L701.534 212.509C699.304 212.903 697.412 214.548 697.412 217.119H698.412ZM701.708 213.494L701.894 214.476C709.398 213.052 715.199 211.979 719.695 210.712C724.196 209.444 727.517 207.951 729.997 205.61C732.491 203.258 734.035 200.146 735.18 195.845C736.32 191.562 737.089 185.999 737.967 178.676L736.974 178.557L735.981 178.438C735.101 185.782 734.346 191.206 733.247 195.33C732.154 199.437 730.746 202.155 728.625 204.156C726.491 206.169 723.536 207.552 719.152 208.787C714.762 210.024 709.069 211.079 701.522 212.511L701.708 213.494ZM736.974 178.557L737.963 178.705C738.236 176.883 739.335 175.932 740.709 175.932V174.932V173.932C738.129 173.932 736.371 175.837 735.985 178.409L736.974 178.557ZM740.709 174.932V175.932C741.515 175.932 742.14 176.202 742.586 176.629C743.037 177.061 743.362 177.709 743.45 178.552L744.445 178.447L745.439 178.343C745.308 177.098 744.809 175.988 743.969 175.184C743.124 174.375 741.992 173.932 740.709 173.932V174.932ZM744.445 178.447L743.453 178.575C744.413 186.004 745.209 191.713 746.345 196.13C747.484 200.56 748.991 203.807 751.445 206.239C753.897 208.669 757.192 210.184 761.696 211.364C766.19 212.542 772.005 213.415 779.571 214.484L779.711 213.494L779.851 212.503C772.256 211.43 766.563 210.572 762.203 209.43C757.852 208.289 754.946 206.893 752.853 204.818C750.762 202.746 749.378 199.895 748.282 195.632C747.183 191.357 746.4 185.777 745.437 178.319L744.445 178.447ZM779.711 213.494L779.594 214.487C781.003 214.653 782.007 215.692 782.007 217.119H783.007H784.007C784.007 214.591 782.154 212.774 779.828 212.501L779.711 213.494ZM783.007 217.119H782.007C782.007 218.631 781.022 219.608 779.537 219.87L779.711 220.854L779.885 221.839C782.135 221.442 784.007 219.782 784.007 217.119H783.007ZM779.711 220.854L779.522 219.872C771.962 221.324 766.16 222.425 761.687 223.718C757.206 225.013 753.933 226.534 751.494 228.898C749.046 231.272 747.54 234.399 746.393 238.704C745.251 242.993 744.441 248.559 743.454 255.877L744.445 256.011L745.436 256.144C746.427 248.796 747.223 243.362 748.326 239.219C749.425 235.092 750.802 232.355 752.886 230.334C754.98 228.304 757.886 226.899 762.242 225.64C766.606 224.378 772.298 223.296 779.9 221.837L779.711 220.854ZM744.445 256.011L743.451 255.9C743.283 257.412 742.248 258.417 740.709 258.417V259.417V260.417C743.346 260.417 745.167 258.565 745.439 256.121L744.445 256.011ZM815.197 380.925V379.925C812.923 379.925 811.183 378.292 810.803 375.725L809.813 375.872L808.824 376.018C809.323 379.383 811.758 381.925 815.197 381.925V380.925ZM809.813 375.872L810.804 375.736C808.744 360.706 806.675 348.868 803.792 339.461C800.904 330.041 797.182 322.996 791.775 317.596C786.367 312.195 779.351 308.517 770.011 305.7C760.683 302.887 748.975 300.915 734.138 298.965L734.008 299.956L733.877 300.948C748.704 302.897 760.273 304.853 769.433 307.615C778.581 310.374 785.263 313.919 790.361 319.011C795.46 324.103 799.05 330.817 801.879 340.047C804.712 349.289 806.764 360.989 808.823 376.007L809.813 375.872ZM734.008 299.956L734.111 298.961C731.381 298.679 729.734 296.864 729.734 294.463H728.734H727.734C727.734 297.994 730.263 300.574 733.905 300.951L734.008 299.956ZM728.734 294.463H729.734C729.734 292.184 731.367 290.358 734.111 290.074L734.008 289.08L733.905 288.085C730.276 288.46 727.734 291.029 727.734 294.463H728.734ZM734.008 289.08L734.118 290.073C763.78 286.784 781.152 282.821 791.985 271.875C797.412 266.392 801.137 259.221 803.994 249.692C806.848 240.175 808.854 228.24 810.805 213.183L809.813 213.054L808.822 212.926C806.873 227.97 804.882 239.767 802.078 249.118C799.278 258.458 795.683 265.295 790.563 270.468C780.302 280.836 763.671 284.784 733.898 288.086L734.008 289.08ZM809.813 213.054L810.803 213.201C811.179 210.662 812.897 209.11 815.197 209.11V208.11V207.11C811.784 207.11 809.327 209.514 808.824 212.908L809.813 213.054ZM815.197 208.11V209.11C817.493 209.11 819.23 210.663 819.707 213.236L820.69 213.054L821.673 212.872C821.051 209.513 818.613 207.11 815.197 207.11V208.11ZM820.69 213.054L819.698 213.183C821.649 228.24 823.648 240.174 826.494 249.692C829.342 259.22 833.057 266.391 838.477 271.875C849.296 282.821 866.669 286.784 896.386 290.074L896.496 289.08L896.606 288.086C866.776 284.784 850.146 280.836 839.899 270.469C834.787 265.296 831.202 258.459 828.41 249.119C825.614 239.767 823.631 227.971 821.682 212.926L820.69 213.054ZM896.496 289.08L896.389 290.074C899.014 290.355 900.659 292.172 900.659 294.463H901.659H902.659C902.659 291.041 900.13 288.463 896.602 288.085L896.496 289.08ZM901.659 294.463H900.659C900.659 296.876 899 298.682 896.389 298.962L896.496 299.956L896.602 300.95C900.143 300.571 902.659 297.983 902.659 294.463H901.659ZM896.496 299.956L896.386 298.962C866.669 302.252 849.297 306.215 838.477 317.147C833.057 322.624 829.342 329.784 826.494 339.297C823.648 348.799 821.649 360.713 819.698 375.743L820.69 375.872L821.682 376C823.631 360.983 825.614 349.207 828.41 339.871C831.202 330.546 834.786 323.719 839.899 318.553C850.146 308.199 866.777 304.252 896.606 300.95L896.496 299.956ZM820.69 375.872L819.707 375.689C819.225 378.291 817.468 379.925 815.197 379.925V380.925V381.925C818.638 381.925 821.056 379.385 821.673 376.054L820.69 375.872Z" fill="white" style="fill:white;fill-opacity:1;" mask="url(#path-2-outside-1_2008_45)"/>
</g>
<defs>
<filter id="filter0_d_2008_45" x="317.953" y="771.816" width="129.758" height="129.758" filterUnits="userSpaceOnUse" color-interpolation-filters="sRGB">
<feFlood flood-opacity="0" result="BackgroundImageFix"/>
<feColorMatrix in="SourceAlpha" type="matrix" values="0 0 0 0 0 0 0 0 0 0 0 0 0 0 0 0 0 0 127 0" result="hardAlpha"/>
<feOffset dy="4"/>
<feGaussianBlur stdDeviation="2"/>
<feComposite in2="hardAlpha" operator="out"/>
<feColorMatrix type="matrix" values="0 0 0 0 0 0 0 0 0 0 0 0 0 0 0 0 0 0 0.25 0"/>
<feBlend mode="normal" in2="BackgroundImageFix" result="effect1_dropShadow_2008_45"/>
<feBlend mode="normal" in="SourceGraphic" in2="effect1_dropShadow_2008_45" result="shape"/>
</filter>
<filter id="filter1_d_2008_45" x="693.412" y="129.327" width="213.247" height="260.598" filterUnits="userSpaceOnUse" color-interpolation-filters="sRGB">
<feFlood flood-opacity="0" result="BackgroundImageFix"/>
<feColorMatrix in="SourceAlpha" type="matrix" values="0 0 0 0 0 0 0 0 0 0 0 0 0 0 0 0 0 0 127 0" result="hardAlpha"/>
<feOffset dy="4"/>
<feGaussianBlur stdDeviation="2"/>
<feComposite in2="hardAlpha" operator="out"/>
<feColorMatrix type="matrix" values="0 0 0 0 0 0 0 0 0 0 0 0 0 0 0 0 0 0 0.25 0"/>
<feBlend mode="normal" in2="BackgroundImageFix" result="effect1_dropShadow_2008_45"/>
<feBlend mode="normal" in="SourceGraphic" in2="effect1_dropShadow_2008_45" result="shape"/>
</filter>
</defs>
</svg>
