<svg width="1024" height="1024" viewBox="0 0 1024 1024" fill="none" xmlns="http://www.w3.org/2000/svg">
<g filter="url(#filter0_d_2008_45)">
<g filter="url(#filter1_d_2008_45)">
<path d="M671.13 774.974C678.781 805.085 702.752 802.074 702.752 802.074C702.752 802.074 725.704 808.598 736.924 774.974" stroke="white" style="stroke:white;stroke-opacity:1;" stroke-width="20" stroke-linecap="round"/>
<path d="M872.885 683.502C870.952 662.311 866.674 636.612 859.175 618.465C857.325 614.058 813.609 512 703.258 512C674.689 512 650.697 518.761 630.726 528.857C597.078 542.842 571.152 568.722 555.088 603.898C550.48 612.204 548.134 617.911 547.762 618.865C540.428 636.558 536.216 661.902 534.242 682.984C520.78 694.216 512 712.545 512 733.2C512 761.724 528.725 785.787 551.405 792.902C580.138 854.595 638.622 894.524 703.555 894.524C768.53 894.524 827.071 854.513 855.805 792.693C878.138 785.315 894.524 761.443 894.524 733.2C894.499 712.863 886.001 694.77 872.885 683.502ZM841.203 758.707C838.593 758.707 836.099 758.035 833.803 756.899C815.385 815.775 764.095 858.185 703.547 858.185C642.941 858.185 591.577 815.666 573.225 756.708C570.781 757.99 568.121 758.716 565.313 758.716C554.072 758.707 545.037 747.285 545.037 733.2C545.037 719.124 554.072 707.71 565.313 707.71C565.52 707.71 565.718 707.774 565.932 707.783C565.99 699.95 566.626 690.263 567.766 680.285C569.377 680.367 570.979 680.494 572.622 680.494C601.174 680.494 633.377 667.818 661.475 645.627C675.937 658.858 696.106 673.488 714.573 673.488H719.752L718.587 667.936C718.504 667.581 712.351 637.585 710.964 610.85C719.71 622.418 729.72 632.95 740.821 642.246C769.918 666.6 803.863 680.558 833.927 680.558C835.768 680.558 837.544 680.431 839.312 680.331C840.443 690.281 841.071 699.904 841.137 707.719C841.17 707.719 841.186 707.71 841.203 707.71C852.444 707.71 861.471 719.124 861.471 733.2C861.463 747.285 852.452 758.707 841.203 758.707Z" fill="white" style="fill:white;fill-opacity:1;"/>
<path d="M641.843 720.269C652.863 720.269 661.797 710.439 661.797 698.314C661.797 686.189 652.863 676.36 641.843 676.36C630.822 676.36 621.888 686.189 621.888 698.314C621.888 710.439 630.822 720.269 641.843 720.269Z" fill="white" style="fill:white;fill-opacity:1;"/>
<path d="M764.665 720.269C775.685 720.269 784.619 710.439 784.619 698.314C784.619 686.189 775.685 676.36 764.665 676.36C753.644 676.36 744.711 686.189 744.711 698.314C744.711 710.439 753.644 720.269 764.665 720.269Z" fill="white" style="fill:white;fill-opacity:1;"/>
</g>
<g filter="url(#filter2_d_2008_45)">
<path d="M382.832 893.574C379.668 893.574 377.148 891.289 376.504 887.891C370.469 848.867 365.605 844.238 327.812 839.023C324.414 838.555 321.953 835.977 321.953 832.695C321.953 829.414 324.473 826.719 327.871 826.309C365.723 822.09 371.113 816.582 376.504 777.5C377.031 774.16 379.609 771.816 382.832 771.816C385.996 771.816 388.574 774.16 389.102 777.5C395.02 816.582 400.117 821.621 437.852 826.309C441.191 826.777 443.711 829.414 443.711 832.695C443.711 835.977 441.191 838.613 437.793 839.023C399.941 843.301 394.492 848.809 389.102 887.891C388.633 891.23 386.055 893.574 382.832 893.574Z" fill="white" style="fill:white;fill-opacity:1;"/>
</g>
<g filter="url(#filter3_d_2008_45)">
<mask id="path-6-outside-1_2008_45" maskUnits="userSpaceOnUse" x="690" y="128" width="206" height="253" fill="black">
<rect fill="white" x="690" y="128" width="206" height="253"/>
<path d="M786.883 182.831C785.455 182.831 784.686 181.952 784.466 180.633C781.17 162.835 781.5 161.957 762.384 158.551C760.956 158.221 760.187 157.452 760.187 156.024C760.187 154.706 760.956 153.827 762.384 153.607C781.5 150.201 781.17 149.322 784.466 131.524C784.686 130.206 785.455 129.327 786.883 129.327C788.312 129.327 789.081 130.206 789.3 131.524C792.596 149.322 792.267 150.201 811.383 153.607C812.701 153.827 813.58 154.706 813.58 156.024C813.58 157.452 812.701 158.221 811.383 158.551C792.267 161.957 792.596 162.835 789.3 180.633C789.081 181.952 788.312 182.831 786.883 182.831ZM733.709 258.417C731.732 258.417 730.304 256.988 729.974 254.791C726.458 225.458 725.03 224.688 695.147 219.854C692.84 219.525 691.412 218.316 691.412 216.119C691.412 214.142 692.84 212.823 694.708 212.494C724.811 206.781 726.458 206.891 729.974 177.557C730.304 175.36 731.732 173.932 733.709 173.932C735.797 173.932 737.225 175.36 737.445 177.447C741.29 207.22 742.389 208.209 772.711 212.494C774.579 212.713 776.007 214.142 776.007 216.119C776.007 218.207 774.579 219.525 772.711 219.854C742.389 225.677 741.4 225.677 737.445 255.011C737.225 256.988 735.797 258.417 733.709 258.417ZM808.197 379.925C805.34 379.925 803.253 377.838 802.813 374.872C794.574 314.776 786.334 306.756 727.008 298.956C723.822 298.626 721.734 296.429 721.734 293.463C721.734 290.606 723.822 288.409 727.008 288.08C786.444 281.488 795.013 272.259 802.813 212.054C803.253 209.088 805.34 207.11 808.197 207.11C811.053 207.11 813.141 209.088 813.69 212.054C821.49 272.259 829.95 281.488 889.496 288.08C892.572 288.409 894.659 290.606 894.659 293.463C894.659 296.429 892.572 298.626 889.496 298.956C829.95 305.548 821.49 314.776 813.69 374.872C813.141 377.838 811.053 379.925 808.197 379.925Z"/>
</mask>
<path d="M786.883 182.831C785.455 182.831 784.686 181.952 784.466 180.633C781.17 162.835 781.5 161.957 762.384 158.551C760.956 158.221 760.187 157.452 760.187 156.024C760.187 154.706 760.956 153.827 762.384 153.607C781.5 150.201 781.17 149.322 784.466 131.524C784.686 130.206 785.455 129.327 786.883 129.327C788.312 129.327 789.081 130.206 789.3 131.524C792.596 149.322 792.267 150.201 811.383 153.607C812.701 153.827 813.58 154.706 813.58 156.024C813.58 157.452 812.701 158.221 811.383 158.551C792.267 161.957 792.596 162.835 789.3 180.633C789.081 181.952 788.312 182.831 786.883 182.831ZM733.709 258.417C731.732 258.417 730.304 256.988 729.974 254.791C726.458 225.458 725.03 224.688 695.147 219.854C692.84 219.525 691.412 218.316 691.412 216.119C691.412 214.142 692.84 212.823 694.708 212.494C724.811 206.781 726.458 206.891 729.974 177.557C730.304 175.36 731.732 173.932 733.709 173.932C735.797 173.932 737.225 175.36 737.445 177.447C741.29 207.22 742.389 208.209 772.711 212.494C774.579 212.713 776.007 214.142 776.007 216.119C776.007 218.207 774.579 219.525 772.711 219.854C742.389 225.677 741.4 225.677 737.445 255.011C737.225 256.988 735.797 258.417 733.709 258.417ZM808.197 379.925C805.34 379.925 803.253 377.838 802.813 374.872C794.574 314.776 786.334 306.756 727.008 298.956C723.822 298.626 721.734 296.429 721.734 293.463C721.734 290.606 723.822 288.409 727.008 288.08C786.444 281.488 795.013 272.259 802.813 212.054C803.253 209.088 805.34 207.11 808.197 207.11C811.053 207.11 813.141 209.088 813.69 212.054C821.49 272.259 829.95 281.488 889.496 288.08C892.572 288.409 894.659 290.606 894.659 293.463C894.659 296.429 892.572 298.626 889.496 298.956C829.95 305.548 821.49 314.776 813.69 374.872C813.141 377.838 811.053 379.925 808.197 379.925Z" fill="white" style="fill:white;fill-opacity:1;"/>
<path d="M784.466 180.633L785.453 180.469L785.451 180.46L785.45 180.451L784.466 180.633ZM762.384 158.551L762.159 159.525L762.184 159.531L762.208 159.535L762.384 158.551ZM762.384 153.607L762.536 154.595L762.548 154.594L762.559 154.591L762.384 153.607ZM784.466 131.524L785.45 131.707L785.451 131.698L785.453 131.689L784.466 131.524ZM789.3 131.524L788.314 131.689L788.315 131.698L788.317 131.707L789.3 131.524ZM811.383 153.607L811.207 154.591L811.218 154.593L811.383 153.607ZM811.383 158.551L811.558 159.535L811.592 159.529L811.625 159.521L811.383 158.551ZM789.3 180.633L788.317 180.451L788.315 180.46L788.314 180.469L789.3 180.633ZM729.974 254.791L728.981 254.91L728.983 254.925L728.985 254.939L729.974 254.791ZM695.147 219.854L695.307 218.867L695.298 218.866L695.289 218.865L695.147 219.854ZM694.708 212.494L694.882 213.479L694.894 213.476L694.708 212.494ZM729.974 177.557L728.985 177.409L728.983 177.423L728.981 177.438L729.974 177.557ZM737.445 177.447L736.45 177.552L736.452 177.564L736.453 177.575L737.445 177.447ZM772.711 212.494L772.571 213.484L772.583 213.485L772.594 213.487L772.711 212.494ZM772.711 219.854L772.537 218.87L772.53 218.871L772.522 218.872L772.711 219.854ZM737.445 255.011L736.454 254.877L736.452 254.889L736.451 254.9L737.445 255.011ZM802.813 374.872L801.823 375.007L801.824 375.018L802.813 374.872ZM727.008 298.956L727.138 297.965L727.124 297.963L727.111 297.961L727.008 298.956ZM727.008 288.08L727.111 289.074L727.118 289.073L727.008 288.08ZM802.813 212.054L801.824 211.908L801.823 211.917L801.822 211.926L802.813 212.054ZM813.69 212.054L814.682 211.926L814.678 211.899L814.673 211.872L813.69 212.054ZM889.496 288.08L889.386 289.074L889.389 289.074L889.496 288.08ZM889.496 298.956L889.389 297.962L889.386 297.962L889.496 298.956ZM813.69 374.872L814.673 375.054L814.678 375.027L814.682 375L813.69 374.872ZM786.883 182.831V181.831C786.388 181.831 786.101 181.685 785.916 181.507C785.716 181.313 785.539 180.985 785.453 180.469L784.466 180.633L783.48 180.798C783.614 181.6 783.931 182.37 784.527 182.946C785.139 183.536 785.95 183.831 786.883 183.831V182.831ZM784.466 180.633L785.45 180.451C784.631 176.028 784.024 172.578 783.277 169.886C782.528 167.181 781.606 165.114 780.084 163.507C778.558 161.897 776.521 160.845 773.731 159.98C770.953 159.119 767.328 158.416 762.559 157.566L762.384 158.551L762.208 159.535C766.997 160.388 770.5 161.072 773.139 161.89C775.767 162.705 777.438 163.623 778.632 164.883C779.828 166.146 780.637 167.849 781.35 170.42C782.066 173.005 782.654 176.339 783.483 180.815L784.466 180.633ZM762.384 158.551L762.609 157.576C762.011 157.439 761.678 157.237 761.493 157.03C761.323 156.841 761.187 156.55 761.187 156.024H760.187H759.187C759.187 156.926 759.435 157.733 760.006 158.368C760.562 158.986 761.328 159.333 762.159 159.525L762.384 158.551ZM760.187 156.024H761.187C761.187 155.565 761.316 155.269 761.493 155.072C761.674 154.871 761.992 154.679 762.536 154.595L762.384 153.607L762.232 152.619C761.348 152.755 760.567 153.112 760.006 153.734C759.441 154.362 759.187 155.164 759.187 156.024H760.187ZM762.384 153.607L762.559 154.591C767.328 153.742 770.953 153.039 773.731 152.178C776.521 151.313 778.558 150.261 780.084 148.65C781.606 147.043 782.528 144.977 783.277 142.271C784.024 139.579 784.631 136.129 785.45 131.707L784.466 131.524L783.483 131.342C782.654 135.818 782.066 139.153 781.35 141.737C780.637 144.309 779.828 146.012 778.632 147.275C777.438 148.535 775.767 149.453 773.139 150.267C770.5 151.085 766.997 151.769 762.208 152.622L762.384 153.607ZM784.466 131.524L785.453 131.689C785.539 131.172 785.716 130.844 785.916 130.651C786.101 130.473 786.388 130.327 786.883 130.327V129.327V128.327C785.95 128.327 785.139 128.621 784.527 129.212C783.931 129.787 783.614 130.558 783.48 131.36L784.466 131.524ZM786.883 129.327V130.327C787.379 130.327 787.666 130.473 787.85 130.651C788.051 130.844 788.228 131.172 788.314 131.689L789.3 131.524L790.287 131.36C790.153 130.558 789.836 129.787 789.24 129.212C788.628 128.621 787.816 128.327 786.883 128.327V129.327ZM789.3 131.524L788.317 131.707C789.136 136.129 789.743 139.579 790.489 142.271C791.239 144.977 792.16 147.043 793.683 148.65C795.208 150.261 797.245 151.313 800.035 152.178C802.813 153.039 806.438 153.742 811.207 154.591L811.383 153.607L811.558 152.622C806.769 151.769 803.267 151.085 800.627 150.267C798 149.453 796.329 148.535 795.135 147.275C793.938 146.012 793.129 144.309 792.417 141.737C791.7 139.153 791.112 135.818 790.284 131.342L789.3 131.524ZM811.383 153.607L811.218 154.593C811.702 154.674 812.037 154.863 812.245 155.086C812.444 155.3 812.58 155.6 812.58 156.024H813.58H814.58C814.58 155.13 814.276 154.331 813.707 153.721C813.146 153.12 812.382 152.76 811.547 152.621L811.383 153.607ZM813.58 156.024H812.58C812.58 156.515 812.437 156.811 812.245 157.017C812.034 157.243 811.683 157.445 811.14 157.581L811.383 158.551L811.625 159.521C812.401 159.327 813.149 158.98 813.707 158.382C814.284 157.763 814.58 156.961 814.58 156.024H813.58ZM811.383 158.551L811.207 157.566C806.438 158.416 802.813 159.119 800.035 159.98C797.245 160.845 795.208 161.897 793.683 163.507C792.16 165.114 791.239 167.181 790.489 169.886C789.743 172.578 789.136 176.028 788.317 180.451L789.3 180.633L790.284 180.815C791.112 176.339 791.7 173.005 792.417 170.42C793.129 167.849 793.938 166.146 795.135 164.883C796.329 163.623 798 162.705 800.627 161.89C803.267 161.072 806.769 160.388 811.558 159.535L811.383 158.551ZM789.3 180.633L788.314 180.469C788.228 180.985 788.051 181.313 787.85 181.507C787.666 181.685 787.379 181.831 786.883 181.831V182.831V183.831C787.816 183.831 788.628 183.536 789.24 182.946C789.836 182.37 790.153 181.6 790.287 180.798L789.3 180.633ZM733.709 258.417V257.417C732.335 257.417 731.236 256.465 730.963 254.643L729.974 254.791L728.985 254.939C729.371 257.511 731.129 259.417 733.709 259.417V258.417ZM729.974 254.791L730.967 254.672C730.09 247.351 729.335 241.736 728.22 237.389C727.102 233.027 725.597 229.833 723.15 227.423C720.709 225.019 717.43 223.494 712.967 222.264C708.513 221.036 702.762 220.073 695.307 218.867L695.147 219.854L694.988 220.842C702.474 222.053 708.108 222.999 712.436 224.192C716.755 225.382 719.656 226.789 721.747 228.848C723.832 230.901 725.211 233.702 726.283 237.885C727.359 242.083 728.101 247.565 728.981 254.91L729.974 254.791ZM695.147 219.854L695.289 218.865C694.264 218.718 693.552 218.392 693.106 217.965C692.683 217.56 692.412 216.983 692.412 216.119H691.412H690.412C690.412 217.453 690.855 218.578 691.723 219.41C692.568 220.219 693.724 220.661 695.006 220.844L695.147 219.854ZM691.412 216.119H692.412C692.412 214.735 693.377 213.744 694.882 213.478L694.708 212.494L694.534 211.509C692.304 211.903 690.412 213.548 690.412 216.119H691.412ZM694.708 212.494L694.894 213.476C702.398 212.052 708.199 210.979 712.695 209.712C717.196 208.444 720.517 206.951 722.997 204.61C725.491 202.258 727.035 199.146 728.18 194.845C729.32 190.562 730.089 184.999 730.967 177.676L729.974 177.557L728.981 177.438C728.101 184.782 727.346 190.206 726.247 194.33C725.154 198.437 723.746 201.155 721.625 203.156C719.491 205.169 716.536 206.552 712.152 207.787C707.762 209.024 702.069 210.079 694.522 211.511L694.708 212.494ZM729.974 177.557L730.963 177.705C731.236 175.883 732.335 174.932 733.709 174.932V173.932V172.932C731.129 172.932 729.371 174.837 728.985 177.409L729.974 177.557ZM733.709 173.932V174.932C734.515 174.932 735.14 175.202 735.586 175.629C736.037 176.061 736.362 176.709 736.45 177.552L737.445 177.447L738.439 177.343C738.308 176.098 737.809 174.988 736.969 174.184C736.124 173.375 734.992 172.932 733.709 172.932V173.932ZM737.445 177.447L736.453 177.575C737.413 185.004 738.209 190.713 739.345 195.13C740.484 199.56 741.991 202.807 744.445 205.239C746.897 207.669 750.192 209.184 754.696 210.364C759.19 211.542 765.005 212.415 772.571 213.484L772.711 212.494L772.851 211.503C765.256 210.43 759.563 209.572 755.203 208.43C750.852 207.289 747.946 205.893 745.853 203.818C743.762 201.746 742.378 198.895 741.282 194.632C740.183 190.357 739.4 184.777 738.437 177.319L737.445 177.447ZM772.711 212.494L772.594 213.487C774.003 213.653 775.007 214.692 775.007 216.119H776.007H777.007C777.007 213.591 775.154 211.774 772.828 211.501L772.711 212.494ZM776.007 216.119H775.007C775.007 217.631 774.022 218.608 772.537 218.87L772.711 219.854L772.885 220.839C775.135 220.442 777.007 218.782 777.007 216.119H776.007ZM772.711 219.854L772.522 218.872C764.962 220.324 759.16 221.425 754.687 222.718C750.206 224.013 746.933 225.534 744.494 227.898C742.046 230.272 740.54 233.399 739.393 237.704C738.251 241.993 737.441 247.559 736.454 254.877L737.445 255.011L738.436 255.144C739.427 247.796 740.223 242.362 741.326 238.219C742.425 234.092 743.802 231.355 745.886 229.334C747.98 227.304 750.886 225.899 755.242 224.64C759.606 223.378 765.298 222.296 772.9 220.837L772.711 219.854ZM737.445 255.011L736.451 254.9C736.283 256.412 735.248 257.417 733.709 257.417V258.417V259.417C736.346 259.417 738.167 257.565 738.439 255.121L737.445 255.011ZM808.197 379.925V378.925C805.923 378.925 804.183 377.292 803.803 374.725L802.813 374.872L801.824 375.018C802.323 378.383 804.758 380.925 808.197 380.925V379.925ZM802.813 374.872L803.804 374.736C801.744 359.706 799.675 347.868 796.792 338.461C793.904 329.041 790.182 321.996 784.775 316.596C779.367 311.195 772.351 307.517 763.011 304.7C753.683 301.887 741.975 299.915 727.138 297.965L727.008 298.956L726.877 299.948C741.704 301.897 753.273 303.853 762.433 306.615C771.581 309.374 778.263 312.919 783.361 318.011C788.46 323.103 792.05 329.817 794.879 339.047C797.712 348.289 799.764 359.989 801.823 375.007L802.813 374.872ZM727.008 298.956L727.111 297.961C724.381 297.679 722.734 295.864 722.734 293.463H721.734H720.734C720.734 296.994 723.263 299.574 726.905 299.951L727.008 298.956ZM721.734 293.463H722.734C722.734 291.184 724.367 289.358 727.111 289.074L727.008 288.08L726.905 287.085C723.276 287.46 720.734 290.029 720.734 293.463H721.734ZM727.008 288.08L727.118 289.073C756.78 285.784 774.152 281.821 784.985 270.875C790.412 265.392 794.137 258.221 796.994 248.692C799.848 239.175 801.854 227.24 803.805 212.183L802.813 212.054L801.822 211.926C799.873 226.97 797.882 238.767 795.078 248.118C792.278 257.458 788.683 264.295 783.563 269.468C773.302 279.836 756.671 283.784 726.898 287.086L727.008 288.08ZM802.813 212.054L803.803 212.201C804.179 209.662 805.897 208.11 808.197 208.11V207.11V206.11C804.784 206.11 802.327 208.514 801.824 211.908L802.813 212.054ZM808.197 207.11V208.11C810.493 208.11 812.23 209.663 812.707 212.236L813.69 212.054L814.673 211.872C814.051 208.513 811.613 206.11 808.197 206.11V207.11ZM813.69 212.054L812.698 212.183C814.649 227.24 816.648 239.174 819.494 248.692C822.342 258.22 826.057 265.391 831.477 270.875C842.296 281.821 859.669 285.784 889.386 289.074L889.496 288.08L889.606 287.086C859.776 283.784 843.146 279.836 832.899 269.469C827.787 264.296 824.202 257.459 821.41 248.119C818.614 238.767 816.631 226.971 814.682 211.926L813.69 212.054ZM889.496 288.08L889.389 289.074C892.014 289.355 893.659 291.172 893.659 293.463H894.659H895.659C895.659 290.041 893.13 287.463 889.602 287.085L889.496 288.08ZM894.659 293.463H893.659C893.659 295.876 892 297.682 889.389 297.962L889.496 298.956L889.602 299.95C893.143 299.571 895.659 296.983 895.659 293.463H894.659ZM889.496 298.956L889.386 297.962C859.669 301.252 842.297 305.215 831.477 316.147C826.057 321.624 822.342 328.784 819.494 338.297C816.648 347.799 814.649 359.713 812.698 374.743L813.69 374.872L814.682 375C816.631 359.983 818.614 348.207 821.41 338.871C824.202 329.546 827.786 322.719 832.899 317.553C843.146 307.199 859.777 303.252 889.606 299.95L889.496 298.956ZM813.69 374.872L812.707 374.689C812.225 377.291 810.468 378.925 808.197 378.925V379.925V380.925C811.638 380.925 814.056 378.385 814.673 375.054L813.69 374.872Z" fill="white" style="fill:white;fill-opacity:1;" mask="url(#path-6-outside-1_2008_45)"/>
</g>
</g>
<defs>
<filter id="filter0_d_2008_45" x="-4" y="0" width="1032" height="1032" filterUnits="userSpaceOnUse" color-interpolation-filters="sRGB">
<feFlood flood-opacity="0" result="BackgroundImageFix"/>
<feColorMatrix in="SourceAlpha" type="matrix" values="0 0 0 0 0 0 0 0 0 0 0 0 0 0 0 0 0 0 127 0" result="hardAlpha"/>
<feOffset dy="4"/>
<feGaussianBlur stdDeviation="2"/>
<feComposite in2="hardAlpha" operator="out"/>
<feColorMatrix type="matrix" values="0 0 0 0 0 0 0 0 0 0 0 0 0 0 0 0 0 0 0.25 0"/>
<feBlend mode="normal" in2="BackgroundImageFix" result="effect1_dropShadow_2008_45"/>
<feBlend mode="normal" in="SourceGraphic" in2="effect1_dropShadow_2008_45" result="shape"/>
</filter>
<filter id="filter1_d_2008_45" x="508" y="512" width="390.524" height="390.524" filterUnits="userSpaceOnUse" color-interpolation-filters="sRGB">
<feFlood flood-opacity="0" result="BackgroundImageFix"/>
<feColorMatrix in="SourceAlpha" type="matrix" values="0 0 0 0 0 0 0 0 0 0 0 0 0 0 0 0 0 0 127 0" result="hardAlpha"/>
<feOffset dy="4"/>
<feGaussianBlur stdDeviation="2"/>
<feComposite in2="hardAlpha" operator="out"/>
<feColorMatrix type="matrix" values="0 0 0 0 0 0 0 0 0 0 0 0 0 0 0 0 0 0 0.25 0"/>
<feBlend mode="normal" in2="BackgroundImageFix" result="effect1_dropShadow_2008_45"/>
<feBlend mode="normal" in="SourceGraphic" in2="effect1_dropShadow_2008_45" result="shape"/>
</filter>
<filter id="filter2_d_2008_45" x="317.953" y="771.816" width="129.758" height="129.758" filterUnits="userSpaceOnUse" color-interpolation-filters="sRGB">
<feFlood flood-opacity="0" result="BackgroundImageFix"/>
<feColorMatrix in="SourceAlpha" type="matrix" values="0 0 0 0 0 0 0 0 0 0 0 0 0 0 0 0 0 0 127 0" result="hardAlpha"/>
<feOffset dy="4"/>
<feGaussianBlur stdDeviation="2"/>
<feComposite in2="hardAlpha" operator="out"/>
<feColorMatrix type="matrix" values="0 0 0 0 0 0 0 0 0 0 0 0 0 0 0 0 0 0 0.25 0"/>
<feBlend mode="normal" in2="BackgroundImageFix" result="effect1_dropShadow_2008_45"/>
<feBlend mode="normal" in="SourceGraphic" in2="effect1_dropShadow_2008_45" result="shape"/>
</filter>
<filter id="filter3_d_2008_45" x="686.412" y="128.327" width="213.247" height="260.598" filterUnits="userSpaceOnUse" color-interpolation-filters="sRGB">
<feFlood flood-opacity="0" result="BackgroundImageFix"/>
<feColorMatrix in="SourceAlpha" type="matrix" values="0 0 0 0 0 0 0 0 0 0 0 0 0 0 0 0 0 0 127 0" result="hardAlpha"/>
<feOffset dy="4"/>
<feGaussianBlur stdDeviation="2"/>
<feComposite in2="hardAlpha" operator="out"/>
<feColorMatrix type="matrix" values="0 0 0 0 0 0 0 0 0 0 0 0 0 0 0 0 0 0 0.25 0"/>
<feBlend mode="normal" in2="BackgroundImageFix" result="effect1_dropShadow_2008_45"/>
<feBlend mode="normal" in="SourceGraphic" in2="effect1_dropShadow_2008_45" result="shape"/>
</filter>
</defs>
</svg>
