<svg xmlns="http://www.w3.org/2000/svg" width="1024" height="1024" viewBox="0 0 1024 1024"><g transform="translate(74 80) scale(.85)"><path d="M308 329L717 202Q731 197 735 212L806 708L391 881Q377 886 373 871Z" fill="#BF5D3D"/><path d="M316 327L721 208L726 221L324 343Z" fill="#F8EED7"/><path d="M324 340L726 218Q733 216 735 228L800 704L389 875Z" fill="#E98356"/><path d="M324 340L338 336L400 870L389 875Z" fill="#F8EED7"/><g transform="matrix(0.99,-0.3,0.14,1.06,338,340)"><path d="M12 383Q150 330 220 270Q250 240 300 246L400 246L400 455L12 494Z" fill="#D4B27A"/><g id="tortoise" transform="matrix(1.32,0,0,1.32,-84.64,-214.17)"><ellipse cx="265" cy="351" rx="17" ry="11" fill="#8FA56C"/><ellipse cx="318" cy="351" rx="17" ry="11" fill="#8FA56C"/><path d="M241 325Q242 271 289 271Q337 271 341 325Z" fill="#526A43"/><path d="M252 318Q254 283 289 283Q324 283 330 318Z" fill="#8FA56C"/><path d="M256 322L268 297L288 288L307 296L321 320M268 297L281 317L307 296" fill="none" stroke="#526A43" stroke-width="6" stroke-linecap="round" stroke-linejoin="round"/><rect x="241" y="323" width="101" height="20" rx="10" fill="#D9DCA1"/><path d="M245 326Q236 306 220 309Q200 312 207 330Q216 344 246 342Z" fill="#D9DCA1"/><circle cx="216" cy="318" r="4" fill="#526A43"/></g><ellipse cx="129" cy="348" rx="46" ry="72" fill="#FAEDD0"/><ellipse cx="154" cy="275" rx="47" ry="43" fill="#FAEDD0"/><ellipse cx="116" cy="225" rx="17" ry="52" transform="rotate(-39 116 225)" fill="#FAEDD0"/><ellipse cx="147" cy="216" rx="16" ry="51" transform="rotate(-18 147 216)" fill="#FAEDD0"/><ellipse cx="157" cy="405" rx="34" ry="13" fill="#FAEDD0"/><circle cx="83" cy="388" r="17" fill="#FAEDD0"/><ellipse cx="173" cy="268" rx="5" ry="7" fill="#687744"/><ellipse cx="197" cy="281" rx="6" ry="8" fill="#EDAA86"/><path d="M68 461Q35 423 47 416Q60 413 68 437Q79 411 91 420Q98 437 68 461M346 460Q316 429 327 420Q339 417 346 440Q357 412 369 419Q379 434 346 460" fill="#778E55"/></g></g></svg>
